# xmcd
#
# Track frame offsets:
#	150
#	19650
#	37460
#
# Disc length: 731 seconds
#
# Revision: 3
# Processed by: cddbd v1.4PL0 Copyright (c) Steve Scherf et al.
# Submitted via: EasyCDDAExtractor 5.0.7
#
DISCID=2202d903
DTITLE=The Farm - Groovy Train
DYEAR=1991
DGENRE=Techno
TTITLE0=Groovy Train(Single Mix)
TTITLE1=Groovy Train(Club Mix Radio Edit)
TTITLE2=Groovy Train(Alternative 12 Inch Radio Edit)
EXTD=Bar Code: 016025901357
EXTT0=
EXTT1=
EXTT2=
PLAYORDER=
